<svg xmlns="http://www.w3.org/2000/svg" xmlns:xlink="http://www.w3.org/1999/xlink" width="2380" zoomAndPan="magnify" viewBox="0 0 1784.88 1784.99993" height="2380" preserveAspectRatio="xMidYMid meet" version="1.0"><defs><clipPath id="2f5f83f777"><path d="M 1 1 L 1410 1 L 1410 1119.804688 L 1 1119.804688 Z M 1 1 " clip-rule="nonzero"/></clipPath><clipPath id="83ac192657"><rect x="0" width="1411" y="0" height="1120"/></clipPath></defs><g transform="matrix(1, 0, 0, 1, 189, 306)"><g clip-path="url(#83ac192657)"><g clip-path="url(#2f5f83f777)"><path fill="#ef1399" d="M 1098.507812 151.191406 C 425.316406 148.160156 63.914062 462.464844 32.992188 1113.101562 C 32.605469 1121.273438 20.640625 1121.722656 19.5 1113.621094 C -10.535156 901.042969 -4.722656 707.3125 49.230469 538.898438 C 227.320312 -16.933594 906.582031 -89.851562 1388.546875 86.058594 C 1412.570312 94.828125 1417.425781 125.8125 1397.457031 141.792969 C 1021.515625 442.394531 1072.683594 1262.835938 157.636719 907.273438 C 300.550781 463.128906 593.554688 187.914062 1098.507812 151.191406 " fill-opacity="1" fill-rule="evenodd"/></g></g></g></svg>